<svg width="221" height="81" viewBox="0 0 221 81" fill="none" xmlns="http://www.w3.org/2000/svg">
<g filter="url(#filter0_d_903_1652)">
<path d="M86.5412 12.2497H83.3327C83.274 11.8346 83.1544 11.4658 82.9737 11.1435C82.793 10.8163 82.561 10.5379 82.2778 10.3084C81.9945 10.0789 81.6673 9.90305 81.2961 9.78095C80.9299 9.65886 80.5318 9.59782 80.1021 9.59782C79.3256 9.59782 78.6492 9.79072 78.0729 10.1765C77.4966 10.5575 77.0498 11.1142 76.7323 11.8468C76.4149 12.5744 76.2562 13.4584 76.2562 14.4986C76.2562 15.5682 76.4149 16.4668 76.7323 17.1944C77.0546 17.9221 77.5039 18.4715 78.0802 18.8427C78.6565 19.2138 79.3231 19.3994 80.0801 19.3994C80.505 19.3994 80.8981 19.3433 81.2595 19.2309C81.6258 19.1186 81.9506 18.955 82.2338 18.7401C82.5171 18.5204 82.7515 18.2542 82.9371 17.9416C83.1275 17.6291 83.2594 17.2726 83.3327 16.8721L86.5412 16.8868C86.4582 17.5754 86.2507 18.2395 85.9186 18.8793C85.5914 19.5142 85.1494 20.0831 84.5926 20.5862C84.0408 21.0843 83.3815 21.4799 82.6147 21.7729C81.8529 22.061 80.9909 22.2051 80.0288 22.2051C78.6907 22.2051 77.4942 21.9023 76.4393 21.2967C75.3893 20.6912 74.5591 19.8145 73.9486 18.6669C73.343 17.5192 73.0402 16.1298 73.0402 14.4986C73.0402 12.8626 73.3479 11.4707 73.9633 10.323C74.5786 9.17537 75.4137 8.30119 76.4686 7.70049C77.5235 7.09491 78.7102 6.79212 80.0288 6.79212C80.8981 6.79212 81.7039 6.91422 82.4463 7.1584C83.1935 7.40259 83.8552 7.7591 84.4315 8.22793C85.0078 8.69189 85.4766 9.26084 85.838 9.93479C86.2043 10.6087 86.4387 11.3804 86.5412 12.2497ZM89.6754 22V6.99724H95.5944C96.7275 6.99724 97.6944 7.19991 98.4954 7.60526C99.3012 8.00573 99.9141 8.57468 100.334 9.31212C100.759 10.0447 100.971 10.9066 100.971 11.898C100.971 12.8943 100.757 13.7514 100.327 14.4693C99.897 15.1823 99.2743 15.7293 98.4587 16.1102C97.648 16.4912 96.6664 16.6816 95.5138 16.6816H91.5507V14.1323H95.0011C95.6066 14.1323 96.1097 14.0493 96.5101 13.8833C96.9106 13.7172 97.2085 13.4682 97.4038 13.1361C97.6041 12.804 97.7042 12.3913 97.7042 11.898C97.7042 11.3999 97.6041 10.9799 97.4038 10.638C97.2085 10.2962 96.9081 10.0373 96.5028 9.86154C96.1023 9.68084 95.5969 9.59049 94.9864 9.59049H92.8473V22H89.6754ZM97.7774 15.1726L101.506 22H98.0045L94.3564 15.1726H97.7774ZM104.073 6.99724H107.984L112.116 17.0772H112.292L116.423 6.99724H120.335V22H117.259V12.235H117.134L113.251 21.9267H111.156L107.274 12.1984H107.149V22H104.073V6.99724ZM73.304 51V35.9972H79.223C80.3609 35.9972 81.3303 36.2146 82.1313 36.6492C82.9322 37.079 83.5427 37.6772 83.9627 38.444C84.3875 39.2058 84.6 40.0849 84.6 41.0812C84.6 42.0775 84.3851 42.9565 83.9553 43.7184C83.5256 44.4802 82.9029 45.0736 82.0873 45.4985C81.2766 45.9234 80.295 46.1358 79.1424 46.1358H75.3698V43.5939H78.6296C79.2401 43.5939 79.7431 43.4889 80.1387 43.2789C80.5392 43.064 80.8371 42.7685 81.0324 42.3925C81.2327 42.0115 81.3328 41.5744 81.3328 41.0812C81.3328 40.583 81.2327 40.1484 81.0324 39.7772C80.8371 39.4012 80.5392 39.1106 80.1387 38.9055C79.7382 38.6955 79.2303 38.5905 78.615 38.5905H76.4759V51H73.304ZM88.3733 51H84.9742L90.1534 35.9972H94.241L99.4129 51H96.0138L92.2558 39.4256H92.1386L88.3733 51ZM88.1608 45.1029H96.1896V47.579H88.1608V45.1029ZM114.627 35.9972V51H111.887L105.36 41.5573H105.25V51H102.078V35.9972H104.862L111.338 45.4326H111.47V35.9972H114.627ZM118.107 51V35.9972H128.216V38.6125H121.279V42.1873H127.696V44.8026H121.279V48.3848H128.246V51H118.107ZM131.598 51V35.9972H134.77V48.3848H141.202V51H131.598Z" fill="white"/>
<path d="M190.333 34H205C205.733 34 206.333 33.4 206.333 32.6667C206.333 31.9333 205.733 31.3333 205 31.3333H190.333C189.6 31.3333 189 31.9333 189 32.6667C189 33.4 189.6 34 190.333 34ZM190.333 27.3333H201C201.733 27.3333 202.333 26.7333 202.333 26C202.333 25.2667 201.733 24.6667 201 24.6667H190.333C189.6 24.6667 189 25.2667 189 26C189 26.7333 189.6 27.3333 190.333 27.3333ZM189 19.3333C189 20.0667 189.6 20.6667 190.333 20.6667H205C205.733 20.6667 206.333 20.0667 206.333 19.3333C206.333 18.6 205.733 18 205 18H190.333C189.6 18 189 18.6 189 19.3333ZM212.067 29.84L208.227 26L212.067 22.16C212.587 21.64 212.587 20.8 212.067 20.28C211.547 19.76 210.707 19.76 210.187 20.28L205.4 25.0667C204.88 25.5867 204.88 26.4267 205.4 26.9467L210.187 31.7333C210.707 32.2533 211.547 32.2533 212.067 31.7333C212.573 31.2133 212.587 30.36 212.067 29.84Z" fill="white"/>
<circle cx="28" cy="26" r="24" fill="#315996"/>
<path d="M36 10H18C15.7906 10 14 11.7906 14 14V38C14 40.2094 15.7906 42 18 42H36C38.2094 42 40 40.2094 40 38V14C40 11.7906 38.2062 10 36 10ZM27 18C29.2094 18 31 19.7906 31 22C31 24.2094 29.2094 26 27 26C24.7913 26 23 24.2094 23 22C23 19.7906 24.7937 18 27 18ZM33 34H21C20.45 34 20 33.55 20 33C20 30.2375 22.2375 28 25 28H29C31.7612 28 34 30.2388 34 33C34 33.55 33.55 34 33 34ZM43 14H42V20H43C43.55 20 44 19.55 44 19V15C44 14.4475 43.55 14 43 14ZM43 22H42V28H43C43.55 28 44 27.55 44 27V23C44 22.45 43.55 22 43 22ZM43 30H42V36H43C43.5522 36 44 35.5522 44 35V31C44 30.45 43.55 30 43 30Z" fill="white"/>
<line x1="4" y1="72.4999" x2="217" y2="72.4999" stroke="white"/>
</g>
<defs>
<filter id="filter0_d_903_1652" x="0" y="2" width="221" height="78.9999" filterUnits="userSpaceOnUse" color-interpolation-filters="sRGB">
<feFlood flood-opacity="0" result="BackgroundImageFix"/>
<feColorMatrix in="SourceAlpha" type="matrix" values="0 0 0 0 0 0 0 0 0 0 0 0 0 0 0 0 0 0 127 0" result="hardAlpha"/>
<feOffset dy="4"/>
<feGaussianBlur stdDeviation="2"/>
<feComposite in2="hardAlpha" operator="out"/>
<feColorMatrix type="matrix" values="0 0 0 0 0 0 0 0 0 0 0 0 0 0 0 0 0 0 0.25 0"/>
<feBlend mode="normal" in2="BackgroundImageFix" result="effect1_dropShadow_903_1652"/>
<feBlend mode="normal" in="SourceGraphic" in2="effect1_dropShadow_903_1652" result="shape"/>
</filter>
</defs>
</svg>
